<svg width="23" height="26" viewBox="0 0 23 26" fill="none" xmlns="http://www.w3.org/2000/svg">
<path d="M20.4928 8.87513L7.21029 1.25763C6.49156 0.842597 5.67579 0.62518 4.84583 0.627459C4.01588 0.629739 3.20131 0.851634 2.48487 1.27061C1.76843 1.68958 1.17563 2.2907 0.766694 3.01292C0.357757 3.73514 0.147247 4.55272 0.156545 5.38263V20.6726C0.156545 21.9198 0.651986 23.1159 1.53388 23.9978C2.41577 24.8797 3.61186 25.3751 4.85905 25.3751C5.68465 25.3737 6.49542 25.1556 7.21029 24.7426L20.4928 17.1251C21.2065 16.7121 21.799 16.1186 22.211 15.4042C22.6229 14.6899 22.8397 13.8797 22.8397 13.0551C22.8397 12.2305 22.6229 11.4204 22.211 10.706C21.799 9.99167 21.2065 9.39819 20.4928 8.98513V8.87513ZM19.1178 14.6364L5.83529 22.3639C5.53759 22.5326 5.20124 22.6213 4.85905 22.6213C4.51685 22.6213 4.1805 22.5326 3.8828 22.3639C3.58593 22.1925 3.33942 21.9459 3.16805 21.6491C2.99668 21.3522 2.90649 21.0154 2.90655 20.6726V5.32763C2.90649 4.98484 2.99668 4.64807 3.16805 4.35119C3.33942 4.05431 3.58593 3.80777 3.8828 3.63638C4.18173 3.47022 4.51708 3.38048 4.85905 3.37513C5.20078 3.38214 5.53573 3.47178 5.83529 3.63638L19.1178 11.3089C19.4148 11.4802 19.6614 11.7267 19.8329 12.0236C20.0043 12.3205 20.0946 12.6573 20.0946 13.0001C20.0946 13.343 20.0043 13.6798 19.8329 13.9767C19.6614 14.2736 19.4148 14.5201 19.1178 14.6914V14.6364Z" fill="white"/>
</svg>
